<mxfile host="app.diagrams.net" agent="Mozilla/5.0 (Windows NT 10.0; Win64; x64) AppleWebKit/537.36 (KHTML, like Gecko) Chrome/136.0.0.0 Safari/537.36 Edg/136.0.0.0" version="27.0.9">
  <diagram name="Page-1" id="QYrtBOQRc08aZvWXUzZQ">
    <mxGraphModel dx="1418" dy="790" grid="1" gridSize="10" guides="1" tooltips="1" connect="1" arrows="1" fold="1" page="1" pageScale="1" pageWidth="827" pageHeight="1169" math="0" shadow="0">
      <root>
        <mxCell id="0" />
        <mxCell id="1" parent="0" />
        <mxCell id="OuJ3eWc_oyicHDaKtTA7-1" value="«System»&lt;br&gt;&lt;b&gt;MyWaze System&lt;/b&gt;" style="html=1;whiteSpace=wrap;" parent="1" vertex="1">
          <mxGeometry x="340" y="270" width="110" height="50" as="geometry" />
        </mxCell>
        <mxCell id="OuJ3eWc_oyicHDaKtTA7-2" value="Music Apps&lt;div&gt;&lt;br&gt;&lt;/div&gt;" style="shape=umlActor;verticalLabelPosition=bottom;verticalAlign=top;html=1;" parent="1" vertex="1">
          <mxGeometry x="210" y="260" width="30" height="60" as="geometry" />
        </mxCell>
        <mxCell id="OuJ3eWc_oyicHDaKtTA7-3" value="&lt;div&gt;User&lt;/div&gt;" style="shape=umlActor;verticalLabelPosition=bottom;verticalAlign=top;html=1;" parent="1" vertex="1">
          <mxGeometry x="230" y="360" width="30" height="60" as="geometry" />
        </mxCell>
        <mxCell id="OuJ3eWc_oyicHDaKtTA7-4" value="GPS" style="shape=umlActor;verticalLabelPosition=bottom;verticalAlign=top;html=1;" parent="1" vertex="1">
          <mxGeometry x="250" y="160" width="30" height="60" as="geometry" />
        </mxCell>
        <mxCell id="OuJ3eWc_oyicHDaKtTA7-5" value="&lt;div&gt;Navigation System&lt;/div&gt;" style="shape=umlActor;verticalLabelPosition=bottom;verticalAlign=top;html=1;" parent="1" vertex="1">
          <mxGeometry x="300" y="410" width="30" height="60" as="geometry" />
        </mxCell>
        <mxCell id="OuJ3eWc_oyicHDaKtTA7-6" value="" style="endArrow=none;html=1;rounded=0;entryX=0;entryY=0.5;entryDx=0;entryDy=0;" parent="1" source="OuJ3eWc_oyicHDaKtTA7-2" target="OuJ3eWc_oyicHDaKtTA7-1" edge="1">
          <mxGeometry width="50" height="50" relative="1" as="geometry">
            <mxPoint x="250" y="350" as="sourcePoint" />
            <mxPoint x="300" y="300" as="targetPoint" />
          </mxGeometry>
        </mxCell>
        <mxCell id="OuJ3eWc_oyicHDaKtTA7-7" value="" style="endArrow=none;html=1;rounded=0;entryX=0;entryY=1;entryDx=0;entryDy=0;" parent="1" source="OuJ3eWc_oyicHDaKtTA7-3" target="OuJ3eWc_oyicHDaKtTA7-1" edge="1">
          <mxGeometry width="50" height="50" relative="1" as="geometry">
            <mxPoint x="310" y="300" as="sourcePoint" />
            <mxPoint x="450" y="314" as="targetPoint" />
          </mxGeometry>
        </mxCell>
        <mxCell id="OuJ3eWc_oyicHDaKtTA7-8" value="" style="endArrow=none;html=1;rounded=0;entryX=0.174;entryY=1.031;entryDx=0;entryDy=0;exitX=0.667;exitY=0;exitDx=0;exitDy=0;exitPerimeter=0;entryPerimeter=0;" parent="1" source="OuJ3eWc_oyicHDaKtTA7-5" target="OuJ3eWc_oyicHDaKtTA7-1" edge="1">
          <mxGeometry width="50" height="50" relative="1" as="geometry">
            <mxPoint x="360" y="390" as="sourcePoint" />
            <mxPoint x="500" y="404" as="targetPoint" />
          </mxGeometry>
        </mxCell>
        <mxCell id="OuJ3eWc_oyicHDaKtTA7-9" value="" style="endArrow=none;html=1;rounded=0;entryX=0.091;entryY=0;entryDx=0;entryDy=0;entryPerimeter=0;" parent="1" source="OuJ3eWc_oyicHDaKtTA7-4" target="OuJ3eWc_oyicHDaKtTA7-1" edge="1">
          <mxGeometry width="50" height="50" relative="1" as="geometry">
            <mxPoint x="340" y="240" as="sourcePoint" />
            <mxPoint x="480" y="254" as="targetPoint" />
          </mxGeometry>
        </mxCell>
        <mxCell id="OuJ3eWc_oyicHDaKtTA7-10" value="«block»&lt;br&gt;Navigation" style="html=1;whiteSpace=wrap;" parent="1" vertex="1">
          <mxGeometry x="430" y="170" width="110" height="50" as="geometry" />
        </mxCell>
        <mxCell id="OuJ3eWc_oyicHDaKtTA7-11" value="«block»&lt;br&gt;System Administartor" style="html=1;whiteSpace=wrap;" parent="1" vertex="1">
          <mxGeometry x="510" y="260" width="110" height="50" as="geometry" />
        </mxCell>
        <mxCell id="OuJ3eWc_oyicHDaKtTA7-12" value="«block»&lt;br&gt;Third-Parties" style="html=1;whiteSpace=wrap;" parent="1" vertex="1">
          <mxGeometry x="520" y="350" width="110" height="50" as="geometry" />
        </mxCell>
        <mxCell id="OuJ3eWc_oyicHDaKtTA7-13" value="«block»&lt;br&gt;Notifications" style="html=1;whiteSpace=wrap;" parent="1" vertex="1">
          <mxGeometry x="410" y="430" width="110" height="50" as="geometry" />
        </mxCell>
        <mxCell id="OuJ3eWc_oyicHDaKtTA7-14" value="" style="endArrow=none;html=1;rounded=0;exitX=1;exitY=0.75;exitDx=0;exitDy=0;entryX=0;entryY=0.4;entryDx=0;entryDy=0;entryPerimeter=0;" parent="1" source="OuJ3eWc_oyicHDaKtTA7-1" target="OuJ3eWc_oyicHDaKtTA7-12" edge="1">
          <mxGeometry width="50" height="50" relative="1" as="geometry">
            <mxPoint x="410" y="430" as="sourcePoint" />
            <mxPoint x="460" y="380" as="targetPoint" />
          </mxGeometry>
        </mxCell>
        <mxCell id="OuJ3eWc_oyicHDaKtTA7-15" value="" style="endArrow=none;html=1;rounded=0;exitX=0.595;exitY=1.054;exitDx=0;exitDy=0;entryX=0.364;entryY=0;entryDx=0;entryDy=0;entryPerimeter=0;exitPerimeter=0;" parent="1" source="OuJ3eWc_oyicHDaKtTA7-1" target="OuJ3eWc_oyicHDaKtTA7-13" edge="1">
          <mxGeometry width="50" height="50" relative="1" as="geometry">
            <mxPoint x="430" y="380" as="sourcePoint" />
            <mxPoint x="510" y="462" as="targetPoint" />
          </mxGeometry>
        </mxCell>
        <mxCell id="OuJ3eWc_oyicHDaKtTA7-16" value="" style="endArrow=none;html=1;rounded=0;exitX=1;exitY=0.186;exitDx=0;exitDy=0;entryX=0;entryY=0.5;entryDx=0;entryDy=0;exitPerimeter=0;" parent="1" source="OuJ3eWc_oyicHDaKtTA7-1" target="OuJ3eWc_oyicHDaKtTA7-11" edge="1">
          <mxGeometry width="50" height="50" relative="1" as="geometry">
            <mxPoint x="500" y="400" as="sourcePoint" />
            <mxPoint x="595" y="557" as="targetPoint" />
          </mxGeometry>
        </mxCell>
        <mxCell id="OuJ3eWc_oyicHDaKtTA7-17" value="" style="endArrow=none;html=1;rounded=0;exitX=0.75;exitY=0;exitDx=0;exitDy=0;entryX=0.171;entryY=1.009;entryDx=0;entryDy=0;entryPerimeter=0;" parent="1" source="OuJ3eWc_oyicHDaKtTA7-1" target="OuJ3eWc_oyicHDaKtTA7-10" edge="1">
          <mxGeometry width="50" height="50" relative="1" as="geometry">
            <mxPoint x="470" y="230" as="sourcePoint" />
            <mxPoint x="565" y="387" as="targetPoint" />
          </mxGeometry>
        </mxCell>
        <mxCell id="rl09GL7pTFEDsOrtfaqd-1" value="&lt;b&gt;bdd MyWaze Context Diagram&lt;/b&gt;" style="shape=umlFrame;whiteSpace=wrap;html=1;pointerEvents=0;width=200;height=30;" vertex="1" parent="1">
          <mxGeometry x="110" y="120" width="570" height="400" as="geometry" />
        </mxCell>
      </root>
    </mxGraphModel>
  </diagram>
</mxfile>
